# xmcd
#
# Track frame offsets:
#	150
#	19155
#	33552
#	51806
#	67176
#	83297
#	98838
#	115788
#	130375
#	149045
#	165064
#	180572
#
# Disc length: 2634 seconds
#
# Revision: 0
# Processed by: cddbd v1.5.2PL0 Copyright (c) Steve Scherf et al.
# Submitted via: audiograbber 1.82.02
#
DISCID=9b0a480c
DTITLE=anis - rodeo boulevard
DYEAR=2008
DGENRE=Blues
TTITLE0=José
TTITLE1=Rodéo Bld
TTITLE2=Dans Tes Yeux
TTITLE3=La Trentaine
TTITLE4=Dieu Protège Nos Os
TTITLE5=O Mon Amour
TTITLE6=Hagard Du Nord
TTITLE7=L'eau
TTITLE8=Swing Javanaise
TTITLE9=Lisboa
TTITLE10=A La Ramasse
TTITLE11=Tout Ira Bien - Avec Oxmo Puccino
EXTD=
EXTT0=
EXTT1=
EXTT2=
EXTT3=
EXTT4=
EXTT5=
EXTT6=
EXTT7=
EXTT8=
EXTT9=
EXTT10=
EXTT11=
PLAYORDER=
